<svg width="170" height="54" fill="none" xmlns="http://www.w3.org/2000/svg"><path d="M37.663 8.916c.031.047.031.063-.032.031-1.56-.573-1.877-1.464-1.48-3.04.191-.748-.047-1.273-.779-1.496a3.642 3.642 0 00-1.304-.239c-.064 0-.08.032-.08.08-.016 1.719-.366 3.374 1.273 4.536.938.685 2.306 1.528 3.022 2.42.047.063.047.08-.032.047a483.211 483.211 0 00-3.977-2.133c-1.034-.557-2.179-1.21-2.386-2.196-.206-.907-.143-2.77-.668-3.773-1.002-1.894-3.976-1.703-5.837-1.337-1.511.303-3.006.59-4.518.892-1.733.334-3.912.716-5.328-.621-.016-.016-.016-.016-.016-.032s.032-.032.048-.032C19.657 2.835 24.3.432 28.5.05c1.973-.176 3.945.031 4.947 1.973.032.048.064.08.127.08l1.862.318c.509.08.97.255 1.415.51 2.275 1.337-.922 3.963.812 5.985z" fill="url(#paint0_linear_52_357)"/><path d="M37.79 16.11c0 .048-.032.08-.08.064a4.896 4.896 0 00-1.925.08c-.747.19-1.431-.24-2.147-.621-.413-.223-.716-.144-1.13-.032-.11.032-.126 0-.047-.08.97-1.162 1.957-1.32 3.309-.652.047.015.08.015.127-.016a.915.915 0 00.382-.812.205.205 0 00-.064-.16l-1.782-2.196v-.032c0-.016.016-.016.032-.016 1.94.796 4.2 1.64 4.852 3.868.016.032 0 .08-.032.096-.048.032-.095.016-.127-.032-.382-.653-.939-1.114-1.655-1.4a.22.22 0 00-.143 0 .215.215 0 00-.111.254c.286.652.557 1.019.54 1.687z" fill="url(#paint1_linear_52_357)"/><path d="M38.633 16.46c1.75.637 3.674 1.863 4.724 3.422.08.112.048.128-.048.048a23.015 23.015 0 00-3.642-2.1c-.589-.271-.986-.685-1.177-1.242v-.064c.031-.048.095-.08.143-.064z" fill="url(#paint2_linear_52_357)"/><path d="M7.027 19.405c.016-.016.032-.016.048-.016s.032.032.032.064c-1.162 4.075-3.15 8.213-.414 12.24-.954-4.075.875-8.643 2.704-12.256 0-.016.016-.016.032-.016s.032.016.016.032a21.641 21.641 0 00-.43 5.364c.128 3.04 1.56 4.807 3.611 6.828 2.545 2.372 4.12 5.349 4.692 8.914.462 2.865.62 5.603.446 8.214 0 .095-.016.095-.048 0a23.905 23.905 0 00-4.183-8.15c-.048-.048-.048-.048-.032.016a8.127 8.127 0 01.19 3.39c0 .016-.015.032-.031.048-.032.016-.064 0-.08-.032a10.854 10.854 0 00-1.431-2.451c-1.638-1.91-3.627-3.422-5.52-5.046-2.131-1.735-3.96-4.043-3.944-6.813 0-.827.206-1.862.62-3.104a24.562 24.562 0 013.722-7.226z" fill="url(#paint3_linear_52_357)"/><path d="M.076 25.167c4.295-3.55 3.69-8.993 5.647-13.657a7.627 7.627 0 012.179-2.945c2.004-1.719 4.963-2.244 7.587-2.196.048 0 .048.016 0 .016-2.974.987-5.249 2.26-6.617 5.236v.032c.016.016.032.016.048 0a10.067 10.067 0 013.483-2.324c3.166-1.496 7.651-1.432 10.149-4.09.063-.064.047-.096-.048-.096a29.574 29.574 0 00-3.754.287c-2.816.382-7.317 1.066-8.59-2.404-.031-.095-.015-.111.064-.048 1.734 1.37 4.072 1.306 6.204 1.067 2.115-.223 4.215-.494 6.33-.764 2.482-.334 5.806-.334 6.92 2.467l.381 1.003c.716 1.958 2.1 2.467 4.12 3.231.095.032.095.064-.016.064-1.622.127-3.706.127-5.249-.43-.048-.016-.064 0-.032.032.493.636 1.384 1.082 1.973 1.703.063.064.047.08-.032.048-1.448-.446-2.593-.27-3.897-.653.731 1.066 1.956 1.353 2.895 2.42.031.047.031.047-.032.031-1.114-.318-2.354-.382-3.34-.955-.08-.048-.096-.032-.048.048 1.225 2.149.54 4.202-.605 6.208-.636 1.114-1.193 2.196-1.638 3.247-1.495 3.454-.573 7.401 2.163 9.932a50.44 50.44 0 001.702 1.528c1.13.955 2.1 2.07 2.895 3.327.112.175.128.16.048-.016-1.638-4.075-6.49-6.67-5.472-11.651.318-1.576 1.416-3.184 1.973-4.441.413-.94.715-1.91.922-2.913 0-.016.016-.032.048-.032.016 0 .032.016.032.048.016 1.56-.239 3.056-.796 4.488-.43 1.099-.668 1.815-.747 2.117-1.161 4.569 2.163 6.304 5.408 8.357a7.964 7.964 0 012.704 2.547c.763 1.146.954 2.165 1.098 3.581 0 .064.015.064.031 0 1.002-4.059-.843-5.841-3.706-8.165-2.529-2.07-3.42-4.314-3.102-7.577 0-.032.016-.048.048-.064.032-.015.08.016.08.048.62 1.703 1.781 2.85 3.483 3.454h.032c.016-.016.016-.032 0-.048-2.18-2.308-3.531-4.902-3.006-8.165 0-.016.016-.048.047-.048.032 0 .064.016.064.048.668 2.706 3.006 5.921 5.997 6.255.047 0 .095-.016.111-.063.207-.382.175-.733-.111-1.035-.732-.796-1.91-1.242-2.259-2.467v-.032c.016-.016.032-.016.048 0 1.177.891 2.21 1.019 3.61 1.226 1.4.222 2.545.811 3.532 1.83.047.048.031.08-.032.096-.97.35-1.607.843-1.813 1.894a.237.237 0 01-.191.19 21.436 21.436 0 01-5.122.51.416.416 0 00-.128.048c0 .016 0 .016-.015.032 0 .032.015.064.063.064 1.702.159 3.404.095 5.09-.192.048-.015.064.016.064.064v.669c0 .08-.032.127-.111.143a21.578 21.578 0 00-4.916 2.101.077.077 0 00-.031.096c.016.031.063.047.095.031 1.623-.78 3.325-1.464 5.186-1.83.047-.016.095 0 .127.048l.445.509c.032.032.032.08-.016.111a10.664 10.664 0 00-3.085 3.39c-.016.033-.016.064.031.049.048 0 .096-.032.127-.08.716-.971 1.512-1.799 2.418-2.483.255-.223.541-.414.86-.541a.193.193 0 01.158.015l.557.335c.589.175 1.209.143 1.877-.08 1.05-.35 2.64-.828 3.292-1.655.669-.86.828-2.324.875-3.327 0-.064-.016-.111-.063-.143l-1.56-1.146a.334.334 0 00-.174-.064c-.827-.08-1.416-.493-1.782-1.241v-.032c0-.048.032-.08.08-.08a23.33 23.33 0 002.99-.08c.446-.047 2.53.048 2.657-.079.047-.032.047-.095.016-.143-1.782-2.483-4.486-3.964-7.063-5.476a5.873 5.873 0 01-1.463-1.194.12.12 0 010-.143c.286-.366.954-1.48.557-1.878-1.225-1.242-3.15-2.244-4.63-3.168-.03-.016-.047-.047-.03-.095.015-.032.047-.048.094-.032a22.62 22.62 0 016.093 2.77c.43.27.46.588.11.97a4.41 4.41 0 00-.763 1.13c-.095.176-.015.399.16.494 3.022 1.56 6.092 3.9 7.857 6.892.286.478-.334.86-.604 1.162-.7.78-.589 2.754-.557 3.757.016.843-.716 1.942-1.177 2.642-.032.048-.08.08-.143.064l-.334-.032h-.048a.108.108 0 00-.064.127c.987 2.642.255 5.285-1.797 7.163-.016.016-.032.016-.048.016-.032 0-.063-.032-.047-.064.047-.86-.319-1.416-1.13-1.655a9.707 9.707 0 00-2.354-.143c-.063 0-.08.031-.063.095 1.192 2.96 1.256 5.396-1.194 7.688a9.717 9.717 0 01-1.829 1.385c-3.26 1.846-6.935 3.486-9.146 6.67-.047.063-.063.063-.063-.017.015-2.801 1.733-5.173 3.101-7.449 1.082-1.798 1.114-3.613.096-5.428l-.366-.589s-.016-.016-.016 0c-.016 0-.016.016-.016.032.89 2.42.127 4.664-1.336 6.638-.795 1.066-1.877 2.42-3.277 4.075-1.574 2.053-2.863 4.027-3.547 6.557 0 .016-.016.016-.016.016-.016.016-.032 0-.047-.016-2.418-4.727.413-8.897 2.433-13.02.414-.843.716-1.671.891-2.451.954-4.123-2.656-6.733-5.726-8.516-2.8-1.528-4.788-3.772-5.95-6.733 0-.016-.015-.032-.031-.032s-.048.016-.048.048c.064 1.846.636 3.502 1.734 4.966 2.147 2.865 4.9 5.285 4.55 9.248-.255 2.897-1.798 4.584-.764 7.56 0 .017.032.033.047.033.032 0 .048-.016.048-.048.096-1.544.525-3.008 1.273-4.41.254-.556.509-1.113.763-1.686.954-2.197.287-4.457-.747-6.463-.032-.063-.016-.08.031-.032a9.202 9.202 0 012.354 2.42c1.448 2.18.748 4.648-.397 6.86-.414.812-.954 2.022-1.59 3.661a12.706 12.706 0 00-.748 5.285c0 .063-.016.063-.064.016-2.402-2.675-3.436-5.746-3.404-9.328.032-3.502.477-6.574-1.384-9.741-1.416-2.404-2.943-5.094-3.197-8.07-.223-2.627.716-5.38 2.052-7.64.064-.096.048-.112-.048-.033a10.187 10.187 0 00-1.988 2.308c-2.259 3.916-2.052 8.66.588 12.336.048.08.048.08-.031.032-4.184-3.39-3.882-8.532-1.48-12.877.175-.255.191-.35.064-.302a10.431 10.431 0 00-2.974 5.045c-.016.08-.032.08-.048 0-.382-3.04.493-6 2.831-8.054 1.75-1.544 3.69-2.276 5.806-3.151.08-.032.064-.048-.016-.048a17.09 17.09 0 00-6.172 1.194c-2.195 1.018-3.913 2.562-5.153 4.663C5.548 20.392 4.037 23.814.092 25.2c-.111.064-.127.048-.016-.032zm46.907 2.213c1.082-.605 1.289-2.77 1.384-3.82 0-.016 0-.032-.015-.032a.049.049 0 00-.064 0 1.342 1.342 0 00-.382.811c-.143 1.067-.445 2.038-.97 2.977-.048.096-.032.111.047.064zm-6.919 3.66c.493 1.56 1.957 1.513 3.5 1.576 1.018-.063 1.718.35 2.115 1.226.016.032.032.032.064 0 .859-1.528 1.13-2.945.238-4.489-.031-.047-.063-.08-.11-.08-.94-.222-1.878.447-2.546.86a5.471 5.471 0 01-2.21.764l-.955.048c-.096 0-.112.032-.096.096zm-1.559 10.14c1.178-1.592 1.32-3.343.398-5.237l-.398-.7c-.095-.175-.127-.16-.063.032 1.05 3.74-.732 6.271-3.26 8.706 1.43-.796 2.528-1.735 3.323-2.801zM25.478 15.028c-1.75-2.436-2.831-4.791-.286-7.147.048-.048.095-.048.127 0a9.85 9.85 0 001.782 1.273l.716.319c.095.047.11.016.031-.048a3.796 3.796 0 01-.938-1.99c0-.016 0-.032.016-.047.032-.016.063-.016.08 0a4.346 4.346 0 002.353 1.48c.128.032.144 0 .048-.08-1.463-1.337-1.686-3.868-4.215-3.709-2.513.16-4.374 3.789-4.979 5.826-.238.764.7 1.688 1.241 2.101a11.312 11.312 0 003.977 2.07c.08.031.095.015.047-.048zm-5.52 9.073a8.876 8.876 0 001.29 3.263c-.303-2.18.095-4.17 1.192-6.001.923-1.528 1.973-2.993 2.434-4.744 0-.015 0-.015-.016-.031s-.032-.016-.048 0a23.234 23.234 0 01-3.101 3.279c-1.241 1.289-2.1 2.26-1.75 4.234zm-1.033-3.438c.032.047.048.047.032-.016-.128-1.465 1.352-2.26 2.513-2.865.7-.414 1.622-1.051 1.94-1.783.032-.08.016-.08-.047-.048-.51.35-1.098.62-1.75.812-1.861.636-4.2 1.241-2.688 3.9z" fill="url(#paint4_linear_52_357)"/><path d="M143.863 29.466V11.004h5.644l15.007 12.554V11.004H170v18.462h-5.644l-15.007-12.554v12.554h-5.486zm-18.676.344c-1.881 0-3.596-.133-5.143-.396-1.53-.282-2.883-.686-4.062-1.213-1.178-.546-2.171-1.196-2.98-1.952a7.894 7.894 0 01-1.846-2.664c-.404-1.002-.607-2.11-.607-3.323s.203-2.321.607-3.323a7.518 7.518 0 011.82-2.69c.826-.774 1.828-1.425 3.006-1.952 1.179-.546 2.532-.95 4.062-1.214 1.547-.281 3.262-.422 5.143-.422 1.882 0 3.587.141 5.117.422 1.547.264 2.91.668 4.088 1.214 1.178.527 2.171 1.178 2.98 1.951a7.362 7.362 0 011.846 2.69c.405 1.003.607 2.11.607 3.324 0 1.213-.211 2.32-.633 3.323a7.574 7.574 0 01-1.82 2.664c-.809.756-1.802 1.406-2.98 1.952-1.178.527-2.541.931-4.088 1.213-1.53.263-3.235.395-5.117.395zm0-4.484c1.196 0 2.26-.062 3.192-.185.931-.14 1.74-.343 2.426-.607.703-.28 1.275-.615 1.714-1.002a3.635 3.635 0 001.003-1.424c.228-.545.342-1.16.342-1.846 0-.686-.114-1.301-.342-1.846a3.637 3.637 0 00-1.003-1.425c-.439-.422-1.011-.765-1.714-1.028-.686-.282-1.495-.484-2.426-.607-.932-.14-1.996-.21-3.192-.21-1.178 0-2.242.07-3.191.21-.932.123-1.75.325-2.453.607-.686.263-1.257.606-1.714 1.028-.44.405-.774.88-1.003 1.425-.211.545-.316 1.16-.316 1.846 0 .686.105 1.3.316 1.846.229.545.563 1.02 1.003 1.424.457.387 1.028.721 1.714 1.002.703.264 1.521.466 2.453.607a24.99 24.99 0 003.191.185zm-40.744 4.14V11.004h23.262v4.141H90.113v2.849h15.746v4.114H90.113v3.218h17.777v4.14H84.443zm-24.443 0V11.004h5.829v13.979h14.69v4.483H60z" fill="#fff"/><path d="M166.464 42.529v-2.76l-2.325-4.24h1.276l1.676 3.19 1.676-3.19H170l-2.357 4.25v2.75h-1.179zm-7.504 0v-6.07h-2.098v-.93h5.396v.93h-2.119v6.07h-1.179zm-5.99 0v-7h1.189v7h-1.189zm-7.026 0v-7h1.189v6.07h3.082v.93h-4.271zm-3.835 0l-.573-1.74h-2.693l-.573 1.74h-1.146l2.465-7h1.266l2.454 7h-1.2zm-.876-2.65l-1.038-3.13-1.038 3.13h2.076zm-6.347.28c0 .4-.061.753-.183 1.06a2.013 2.013 0 01-.52.78 2.195 2.195 0 01-.832.47c-.324.1-.699.15-1.125.15-.418 0-.793-.05-1.124-.15a2.311 2.311 0 01-.833-.47 2.011 2.011 0 01-.519-.78 3.008 3.008 0 01-.173-1.06v-4.63h1.179v4.7c0 .32.057.59.173.81.115.213.281.376.497.49.224.106.49.16.8.16.238 0 .447-.03.627-.09.181-.06.332-.15.455-.27.129-.127.227-.28.292-.46.072-.187.108-.4.108-.64v-4.7h1.178v4.63zm-11.3 2.46a3.48 3.48 0 01-1.049-.15 2.619 2.619 0 01-.843-.44 2.798 2.798 0 01-.627-.73 3.969 3.969 0 01-.389-1c-.087-.38-.13-.8-.13-1.26 0-.46.043-.88.13-1.26.093-.38.223-.717.389-1.01a2.598 2.598 0 011.47-1.18c.318-.1.667-.15 1.049-.15.382 0 .732.05 1.049.15.317.1.598.25.844.45.252.193.461.436.627.73.173.293.303.63.389 1.01.094.373.141.79.141 1.25 0 .46-.047.88-.141 1.26a3.504 3.504 0 01-.389 1 2.829 2.829 0 01-.541.66l1.017 1.39h-1.212l-.638-.9a.397.397 0 01-.097.03c-.317.1-.667.15-1.049.15zm-.313-2.26h1.146l.508.69c.065-.094.126-.204.184-.33a2.93 2.93 0 00.227-.74 5.55 5.55 0 00.076-.95c0-.347-.026-.66-.076-.94a2.93 2.93 0 00-.227-.74c-.094-.22-.216-.4-.368-.54a1.386 1.386 0 00-.508-.33 1.83 1.83 0 00-.649-.11c-.238 0-.454.036-.648.11a1.526 1.526 0 00-.509.33 1.958 1.958 0 00-.367.54 3.3 3.3 0 00-.217.74c-.05.28-.075.596-.075.95 0 .346.025.66.075.94.051.28.123.526.217.74.101.213.223.393.367.54.152.146.321.256.509.33.194.073.41.11.648.11.224 0 .426-.034.606-.1l-.919-1.24zm-16.26 2.17v-7h1.352l2.152 4.48 2.141-4.48h1.308v7h-1.092v-5.29l-1.903 3.93h-.952l-1.914-3.92v5.28h-1.092zm-3.377-2.37c0 .4-.061.753-.184 1.06a2 2 0 01-.519.78 2.192 2.192 0 01-.833.47c-.324.1-.699.15-1.124.15-.418 0-.793-.05-1.125-.15a2.312 2.312 0 01-.832-.47 2.007 2.007 0 01-.52-.78 2.999 2.999 0 01-.172-1.06v-4.63h1.178v4.7c0 .32.058.59.173.81.116.213.281.376.498.49.223.106.49.16.8.16.238 0 .447-.03.627-.09a1.16 1.16 0 00.746-.73c.072-.187.108-.4.108-.64v-4.7h1.179v4.63zm-9.872 2.37v-7h1.19v7h-1.19zm-10.437 0v-7h1.352l2.152 4.48 2.14-4.48h1.309v7h-1.092v-5.29l-1.903 3.93h-.952l-1.914-3.92v5.28h-1.092zm-7.322 0v-7h4.315v.93h-3.147v2.02h2.768v.93h-2.768v2.19h3.212v.93h-4.38zm-8.145 0v-7h2.704c.375 0 .706.046.994.14.289.093.53.233.725.42.195.18.342.403.443.67.108.266.162.57.162.91 0 .44-.093.816-.28 1.13-.188.306-.455.54-.8.7-.174.086-.369.15-.585.19l1.968 2.84H71.84l-1.849-2.72h-.94v2.72h-1.19zm1.19-6.09v2.46h1.373c.195 0 .371-.027.53-.08a1.005 1.005 0 00.66-.62c.064-.154.097-.33.097-.53s-.03-.377-.087-.53a.84.84 0 00-.248-.38 1.017 1.017 0 00-.411-.24 1.77 1.77 0 00-.563-.08H69.05zM60 42.529v-7h2.509c.389 0 .739.053 1.048.16.31.106.574.263.79.47.216.2.378.446.486.74.116.293.173.626.173 1 0 .486-.104.906-.313 1.26a1.99 1.99 0 01-.887.8c-.382.18-.843.27-1.384.27H61.19v2.3H60zm1.19-6.08v2.87h1.135c.324 0 .594-.054.81-.16.224-.107.394-.267.509-.48.115-.214.173-.474.173-.78 0-.32-.058-.587-.173-.8a1.09 1.09 0 00-.508-.49c-.217-.107-.487-.16-.811-.16h-1.136z" fill="#ABABAB"/><defs><linearGradient id="paint0_linear_52_357" x1="50" y1="27" x2="0" y2="27" gradientUnits="userSpaceOnUse"><stop stop-color="#A77118"/><stop offset="1" stop-color="#EABA3F"/></linearGradient><linearGradient id="paint1_linear_52_357" x1="50" y1="27" x2="0" y2="27" gradientUnits="userSpaceOnUse"><stop stop-color="#A77118"/><stop offset="1" stop-color="#EABA3F"/></linearGradient><linearGradient id="paint2_linear_52_357" x1="50" y1="27" x2="0" y2="27" gradientUnits="userSpaceOnUse"><stop stop-color="#A77118"/><stop offset="1" stop-color="#EABA3F"/></linearGradient><linearGradient id="paint3_linear_52_357" x1="50" y1="27" x2="0" y2="27" gradientUnits="userSpaceOnUse"><stop stop-color="#A77118"/><stop offset="1" stop-color="#EABA3F"/></linearGradient><linearGradient id="paint4_linear_52_357" x1="50" y1="27" x2="0" y2="27" gradientUnits="userSpaceOnUse"><stop stop-color="#A77118"/><stop offset="1" stop-color="#EABA3F"/></linearGradient></defs></svg>