<svg width="20" height="20" fill="none" xmlns="http://www.w3.org/2000/svg"><path fill-rule="evenodd" clip-rule="evenodd" d="M7.757 1.722A2.75 2.75 0 005.065.353L2.507.638C1.253.777.137 1.818.317 3.247.595 5.45 1.724 9.406 5.923 13.605c4.2 4.2 8.156 5.329 10.36 5.607 1.429.181 2.47-.935 2.61-2.19l.283-2.558a2.75 2.75 0 00-1.369-2.691l-1.776-1.015a2.75 2.75 0 00-3.309.443l-.284.284c-.309.309-.651.35-.886.232-.537-.27-1.3-.753-2.143-1.596-.844-.844-1.327-1.606-1.597-2.144-.118-.234-.076-.577.233-.886l.283-.283a2.75 2.75 0 00.444-3.31L7.757 1.723zm-2.526.122a1.25 1.25 0 011.223.622L7.47 4.243a1.25 1.25 0 01-.201 1.504l-.284.284c-.637.636-.995 1.659-.512 2.62.338.672.913 1.567 1.876 2.53.963.963 1.858 1.539 2.531 1.877.96.482 1.983.124 2.62-.512l.284-.284a1.25 1.25 0 011.504-.202l1.776 1.015c.433.248.678.728.623 1.224l-.285 2.558c-.067.605-.504.921-.93.867-1.908-.24-5.546-1.239-9.487-5.18-3.94-3.94-4.938-7.579-5.18-9.485-.053-.427.263-.863.868-.93l2.559-.285z" fill="#fff"/></svg>