<svg width="23" height="24" fill="none" xmlns="http://www.w3.org/2000/svg"><path d="M6.594 1.973l-3.468.386c-.93.103-1.647.84-1.55 1.77C1.822 6.456 2.97 11.042 7.9 15.97c4.929 4.93 9.515 6.08 11.841 6.324.93.098 1.669-.619 1.772-1.549l.385-3.467a2 2 0 00-.996-1.958l-2.484-1.419a2 2 0 00-2.406.322l-.637.638c-.473.473-1.155.673-1.759.386-.716-.339-1.75-.968-2.887-2.104-1.137-1.137-1.766-2.171-2.105-2.888-.286-.604-.086-1.285.387-1.758l.637-.637a2 2 0 00.322-2.407L8.551 2.97a2 2 0 00-1.957-.996z" stroke="url(#paint0_linear_118_6317)" stroke-width="2" stroke-linecap="round" stroke-linejoin="round"/><defs><linearGradient id="paint0_linear_118_6317" x1="21.336" y1="22.336" x2="1.536" y2="2.535" gradientUnits="userSpaceOnUse"><stop stop-color="#A77118"/><stop offset="1" stop-color="#EABA3F"/></linearGradient></defs></svg>