<svg xmlns="http://www.w3.org/2000/svg" viewBox="0 0 256 256" width="24" height="24"><path d="M223.188 21.646a23.395 23.395 0 00-12.75 2.167L24.396 112.688c-9.806 4.687-14.493 14.88-13.563 24.125.93 9.245 7.56 18.297 18.105 20.937l29.979 7.5a41.534 41.534 0 0033.23-5.812l20.082-13.917-4.437 4.604.125-.104c-11.899 11.899-9.689 32.199 4.52 41.23.177.11.358.215.542.312l75.125 39.958c16.84 8.955 37.971-2.26 39.98-21.23L245.209 48.25v-.083c1.34-13.866-9.464-25.131-22.021-26.521zm-1.271 15.687c4.393.317 7.862 4.107 7.375 9.271v.021l-17.125 161.98c-.872 8.23-9.232 12.678-16.542 8.79l-74.604-39.666-.02-.02c-5.84-3.734-6.676-11.472-1.772-16.376.035-.04.07-.083.104-.125l59.813-62.312a8 8 0 00-10.333-12.104l-85.646 59.416a25.523 25.523 0 01-20.354 3.521l-29.98-7.5c-4.069-1.019-5.755-3.759-6.083-7.02-.328-3.262.758-6.275 4.542-8.084L217.334 38.25c1.559-.745 3.119-1.022 4.583-.917z" fill="#fff" font-family="none" font-weight="none" font-size="none" text-anchor="none"/></svg>