<svg width="20" height="20" fill="none" xmlns="http://www.w3.org/2000/svg"><path fill-rule="evenodd" clip-rule="evenodd" d="M.303 19.697a.75.75 0 00.71.198l4.418-1.096A9.838 9.838 0 0010 19.917c5.456 0 9.916-4.461 9.916-9.917 0-5.456-4.46-9.917-9.916-9.917S.083 4.544.083 10c0 1.647.404 3.201 1.118 4.568L.105 18.986a.75.75 0 00.198.711zM10 18.417a8.337 8.337 0 01-4.1-1.07.75.75 0 00-.547-.074l-3.492.866.866-3.492a.75.75 0 00-.075-.548A8.336 8.336 0 011.583 10c0-4.627 3.79-8.417 8.417-8.417s8.416 3.79 8.416 8.417-3.789 8.417-8.416 8.417z" fill="#fff"/><path d="M8.925 11.075c-.379-.38-1.897-2.065-1.345-2.617.152-.152.76-.567.996-.804.807-.807-.119-1.806-.712-2.4-.049-.048-.962-1.031-2.176.182-2.169 2.169.923 6.058 1.866 7.01.952.943 4.84 4.034 7.01 1.865 1.213-1.213.23-2.127.181-2.175-.593-.594-1.593-1.52-2.4-.713-.236.237-.651.845-.803.996-.553.553-2.238-.966-2.617-1.344z" fill="#fff"/></svg>