<svg width="20" height="20" viewBox="0 0 20 20" fill="none" xmlns="http://www.w3.org/2000/svg">
<path d="M5.7168 10.7143H17.4025C17.5699 10.7165 17.7326 10.6587 17.861 10.5512C17.9895 10.4438 18.0752 10.2938 18.1025 10.1286L19.2739 4.41429C19.2928 4.31152 19.2888 4.20589 19.2623 4.10482C19.2359 4.00377 19.1876 3.90972 19.1208 3.82937C19.054 3.74899 18.9705 3.68424 18.876 3.63968C18.7815 3.59511 18.6785 3.57182 18.5739 3.57144H4.28822M5.7168 10.7143L4.28822 3.57144M5.7168 10.7143L6.3168 13.7143C6.34972 13.8756 6.4374 14.0206 6.56495 14.1248C6.69251 14.2289 6.85214 14.2857 7.0168 14.2857H15.7168M4.28822 3.57144L3.68822 1.28572C3.6553 1.12439 3.56762 0.97938 3.44007 0.87525C3.31251 0.77112 3.1529 0.71426 2.98822 0.714294H0.716797M15.0025 19.2857C14.608 19.2857 14.2882 18.9659 14.2882 18.5714C14.2882 18.177 14.608 17.8572 15.0025 17.8572C15.397 17.8572 15.7168 18.177 15.7168 18.5714C15.7168 18.9659 15.397 19.2857 15.0025 19.2857ZM7.85965 19.2857C7.46517 19.2857 7.14537 18.9659 7.14537 18.5714C7.14537 18.177 7.46517 17.8572 7.85965 17.8572C8.25414 17.8572 8.57394 18.177 8.57394 18.5714C8.57394 18.9659 8.25414 19.2857 7.85965 19.2857Z" stroke="white" stroke-width="1.5" stroke-linecap="round" stroke-linejoin="round"/>
</svg>
