<svg width="170" height="54" viewBox="0 0 170 54" fill="none" xmlns="http://www.w3.org/2000/svg">
<path d="M37.6625 8.91552C37.6943 8.96327 37.6943 8.97919 37.6306 8.94735C36.0718 8.37433 35.7537 7.48296 36.1514 5.90715C36.3422 5.15903 36.1036 4.63376 35.372 4.41092C34.9584 4.25175 34.513 4.17216 34.0676 4.17216C34.004 4.17216 33.9881 4.20399 33.9881 4.25174C33.9722 5.97082 33.6223 7.62622 35.2606 8.78818C36.1991 9.47263 37.567 10.3162 38.2828 11.2076C38.3305 11.2713 38.3305 11.2872 38.251 11.2554C36.9308 10.5391 35.5946 9.82281 34.2744 9.12245C33.2405 8.56534 32.0953 7.91273 31.8885 6.92586C31.6817 6.01857 31.7453 4.15624 31.2204 3.15345C30.2183 1.25929 27.2439 1.4503 25.3828 1.8164C23.8717 2.11883 22.3765 2.40534 20.8654 2.70777C19.1317 3.04203 16.9525 3.42404 15.5369 2.08699C15.5209 2.07107 15.5209 2.07107 15.5209 2.05516C15.5209 2.03924 15.5528 2.02332 15.5687 2.02332C19.6566 2.8351 24.3012 0.431589 28.5005 0.0495738C30.4728 -0.125517 32.4452 0.0814075 33.4473 2.02332C33.4791 2.07107 33.5109 2.10291 33.5745 2.10291L35.4356 2.42125C35.9446 2.50084 36.4059 2.67593 36.8512 2.93061C39.1258 4.26766 35.9287 6.89402 37.6625 8.91552Z" fill="url(#paint0_linear_52_357)"/>
<path d="M37.7897 16.1101C37.7897 16.1579 37.7579 16.1897 37.7102 16.1738C37.058 16.0783 36.4218 16.0942 35.7855 16.2534C35.0379 16.4444 34.354 16.0146 33.6382 15.6326C33.2246 15.4098 32.9224 15.4894 32.5088 15.6008C32.3975 15.6326 32.3816 15.6008 32.4611 15.5212C33.4314 14.3592 34.4176 14.2001 35.7696 14.8686C35.8173 14.8845 35.8492 14.8845 35.8969 14.8527C36.1673 14.6457 36.2945 14.3751 36.2786 14.0409C36.2786 13.9772 36.2627 13.9295 36.215 13.8817L34.4335 11.6851C34.4335 11.6851 34.4335 11.6692 34.4335 11.6533C34.4335 11.6374 34.4494 11.6374 34.4653 11.6374C36.4059 12.4332 38.6646 13.2768 39.3167 15.5053C39.3326 15.5371 39.3167 15.5849 39.2849 15.6008C39.2372 15.6326 39.1895 15.6167 39.1577 15.5689C38.7759 14.9163 38.2192 14.4547 37.5034 14.1682C37.4557 14.1523 37.408 14.1523 37.3603 14.1682C37.2648 14.216 37.2171 14.3274 37.2489 14.4229C37.5352 15.0755 37.8056 15.4416 37.7897 16.1101Z" fill="url(#paint1_linear_52_357)"/>
<path d="M38.6328 16.4603C40.3824 17.097 42.3071 18.3226 43.3569 19.8825C43.4364 19.9939 43.4046 20.0099 43.3092 19.9303C42.1639 19.1185 40.9392 18.4181 39.6667 17.8292C39.0781 17.5586 38.6805 17.1447 38.4896 16.5876C38.4896 16.5717 38.4896 16.5399 38.4896 16.524C38.5214 16.4762 38.585 16.4444 38.6328 16.4603Z" fill="url(#paint2_linear_52_357)"/>
<path d="M7.02701 19.405C7.04292 19.3891 7.05882 19.3891 7.07473 19.3891C7.09063 19.3891 7.10654 19.421 7.10654 19.4528C5.94538 23.5276 3.9571 27.6661 6.69298 31.6932C5.73861 27.6184 7.56782 23.0501 9.39704 19.4369C9.39704 19.421 9.41294 19.421 9.42885 19.421C9.44476 19.421 9.46067 19.4369 9.44476 19.4528C9.07891 21.2196 8.93576 23.0024 9.01529 24.8169C9.14254 27.8571 10.5741 29.624 12.626 31.6455C15.171 34.0171 16.7457 36.9937 17.3184 40.5592C17.7796 43.4243 17.9387 46.1621 17.7637 48.7725C17.7637 48.868 17.7478 48.868 17.716 48.7725C16.8412 45.78 15.4573 43.0741 13.5327 40.6228C13.485 40.5751 13.485 40.5751 13.5009 40.6387C13.8031 41.753 13.8667 42.8831 13.6917 44.0291C13.6917 44.0451 13.6758 44.061 13.6599 44.0769C13.6281 44.0928 13.5963 44.0769 13.5804 44.0451C13.2145 43.1696 12.7374 42.3578 12.1488 41.5938C10.5105 39.6837 8.52219 38.1716 6.62935 36.548C4.49791 34.813 2.6687 32.505 2.6846 29.7354C2.6846 28.9077 2.89138 27.8731 3.30495 26.6315C4.13207 24.037 5.37276 21.6335 7.02701 19.405Z" fill="url(#paint3_linear_52_357)"/>
<path d="M0.0759811 25.1671C4.37067 21.6176 3.76623 16.1739 5.7227 11.5101C6.19989 10.364 6.93157 9.37716 7.90185 8.56538C9.90604 6.84631 12.8646 6.32104 15.4891 6.36879C15.5369 6.36879 15.5369 6.3847 15.4891 6.3847C12.5147 7.37158 10.2401 8.64497 8.87214 11.6215C8.87214 11.6374 8.87214 11.6533 8.87214 11.6533C8.88804 11.6693 8.90395 11.6693 8.91986 11.6533C9.92196 10.6346 11.0831 9.85468 12.4033 9.32941C15.5687 7.83318 20.0542 7.89685 22.5515 5.23866C22.6151 5.17499 22.5992 5.14315 22.5038 5.14315C21.2472 5.15907 19.9906 5.25457 18.7499 5.42966C15.9345 5.81168 11.433 6.49613 10.1605 3.02615C10.1287 2.93065 10.1446 2.91473 10.2242 2.9784C11.958 4.34729 14.2962 4.28362 16.4276 4.04486C18.5431 3.82202 20.6428 3.55142 22.7583 3.28082C25.2397 2.94656 28.5641 2.94656 29.6775 5.74801C29.8048 6.08227 29.932 6.41654 30.0593 6.7508C30.7751 8.70863 32.1589 9.21799 34.179 9.98202C34.2744 10.0139 34.2744 10.0457 34.1631 10.0457C32.5406 10.173 30.4569 10.173 28.914 9.61592C28.8663 9.6 28.8504 9.61592 28.8822 9.64775C29.3753 10.2844 30.2661 10.7301 30.8546 11.3509C30.9182 11.4146 30.9023 11.4305 30.8228 11.3987C29.3753 10.953 28.2301 11.1281 26.9257 10.7461C27.6574 11.8125 28.8822 12.099 29.8207 13.1655C29.8525 13.2132 29.8525 13.2132 29.7889 13.1973C28.6754 12.879 27.4347 12.8153 26.4486 12.2423C26.369 12.1945 26.3531 12.2104 26.4008 12.29C27.6256 14.4389 26.9416 16.4922 25.7964 18.4978C25.1601 19.612 24.6034 20.6944 24.1581 21.7449C22.6629 25.199 23.5854 29.1465 26.3213 31.6773C26.878 32.2026 27.4506 32.7119 28.0233 33.2054C29.1526 34.1604 30.1229 35.2746 30.9182 36.5321C31.0296 36.7072 31.0455 36.6913 30.9659 36.5162C29.3276 32.4413 24.4762 29.8468 25.4942 24.8647C25.8123 23.2889 26.9098 21.6812 27.4666 20.4238C27.8801 19.4847 28.1823 18.5137 28.3891 17.5109C28.3891 17.495 28.405 17.4791 28.4368 17.4791C28.4527 17.4791 28.4686 17.495 28.4686 17.5268C28.4846 19.0867 28.2301 20.583 27.6733 22.0155C27.2439 23.1138 27.0053 23.8301 26.9257 24.1325C25.7646 28.7008 29.089 30.4358 32.3339 32.4891C33.4314 33.1258 34.3381 33.9694 35.0379 35.0359C35.8014 36.1819 35.9923 37.2006 36.1355 38.6173C36.1355 38.6809 36.1514 38.6809 36.1673 38.6173C37.1694 34.5584 35.3242 32.7756 32.4611 30.4517C29.932 28.3824 29.0413 26.1381 29.3594 22.875C29.3594 22.8432 29.3753 22.8273 29.4071 22.8114C29.4389 22.7955 29.4866 22.8273 29.4866 22.8591C30.107 24.5623 31.2682 25.7083 32.9701 26.3132C32.986 26.3132 32.986 26.3132 33.0019 26.3132C33.0178 26.2973 33.0178 26.2814 33.0019 26.2654C30.8228 23.9574 29.4707 21.3629 29.9956 18.0998C29.9956 18.0839 30.0116 18.0521 30.0434 18.0521C30.0752 18.0521 30.107 18.068 30.107 18.0998C30.7751 20.8058 33.1133 24.0211 36.1037 24.3554C36.1514 24.3554 36.1991 24.3394 36.215 24.2917C36.4218 23.9097 36.39 23.5595 36.1037 23.2571C35.372 22.4612 34.1949 22.0155 33.845 20.7899C33.845 20.774 33.845 20.774 33.845 20.758C33.8609 20.7421 33.8768 20.7421 33.8927 20.758C35.0697 21.6494 36.1037 21.7767 37.5034 21.9837C38.9032 22.2065 40.0484 22.7955 41.0346 23.8142C41.0823 23.8619 41.0664 23.8938 41.0028 23.9097C40.0325 24.2599 39.3962 24.7533 39.1895 25.8038C39.1736 25.8993 39.094 25.9789 38.9986 25.9948C37.2966 26.3769 35.5947 26.536 33.8768 26.5042C33.8609 26.5042 33.7654 26.536 33.7495 26.5519C33.7495 26.5679 33.7495 26.5679 33.7336 26.5838C33.7336 26.6156 33.7495 26.6475 33.7972 26.6475C35.4992 26.8066 37.2012 26.743 38.8872 26.4564C38.935 26.4405 38.9509 26.4724 38.9509 26.5201V27.1886C38.9509 27.2682 38.9191 27.316 38.8395 27.3319C37.1217 27.8253 35.4833 28.5257 33.9245 29.433C33.8927 29.4489 33.8768 29.4967 33.8927 29.5285C33.9086 29.5603 33.9563 29.5762 33.9881 29.5603C35.6106 28.7804 37.3125 28.0959 39.1736 27.7298C39.2213 27.7139 39.269 27.7298 39.3008 27.7776L39.7462 28.2869C39.778 28.3188 39.778 28.3665 39.7303 28.3984C38.4578 29.3056 37.4239 30.4358 36.6445 31.7887C36.6286 31.8206 36.6286 31.8524 36.6763 31.8365C36.724 31.8365 36.7717 31.8047 36.8035 31.7569C37.5193 30.786 38.3146 29.9583 39.2213 29.2738C39.4758 29.051 39.7621 28.86 40.0802 28.7326C40.1279 28.7167 40.1757 28.7167 40.2393 28.7485L40.796 29.0828C41.3845 29.2579 42.0049 29.2261 42.6729 29.0032C43.7227 28.653 45.3134 28.1755 45.9655 27.3478C46.6336 26.4883 46.7927 25.0239 46.8404 24.0211C46.8404 23.9574 46.8245 23.9097 46.7768 23.8778L45.2179 22.7318C45.1702 22.7 45.1066 22.6681 45.043 22.6681C44.2158 22.5885 43.6273 22.1747 43.2615 21.4266C43.2615 21.4107 43.2615 21.4107 43.2615 21.3947C43.2615 21.347 43.2933 21.3151 43.341 21.3151C44.3431 21.347 45.3293 21.3311 46.3314 21.2356C46.7768 21.1878 48.8605 21.2833 48.9877 21.156C49.0354 21.1241 49.0354 21.0605 49.0036 21.0127C47.2221 18.5296 44.5181 17.0493 41.9412 15.5372C41.3845 15.2188 40.9073 14.8209 40.4779 14.3434C40.4461 14.2956 40.4461 14.2479 40.4779 14.2001C40.7642 13.834 41.4322 12.7198 41.0346 12.3219C39.8098 11.0803 37.8852 10.0775 36.4059 9.15432C36.3741 9.1384 36.3582 9.10657 36.3741 9.05881C36.39 9.02698 36.4218 9.01106 36.4695 9.02698C38.6327 9.64775 40.6687 10.571 42.5616 11.7966C42.9911 12.0672 43.0229 12.3855 42.6729 12.7675C42.3707 13.0859 42.1162 13.4679 41.9094 13.8977C41.814 14.0728 41.8935 14.2956 42.0685 14.3911C45.0907 15.951 48.1606 18.2909 49.9262 21.2833C50.2125 21.7608 49.5922 22.1429 49.3218 22.4453C48.6219 23.2252 48.7332 25.199 48.765 26.2018C48.7809 27.0454 48.0493 28.1437 47.588 28.844C47.5562 28.8918 47.5084 28.9236 47.4448 28.9077L47.1108 28.8759C47.0949 28.8759 47.079 28.8759 47.0631 28.8759C47.0153 28.8918 46.9835 28.9555 46.9994 29.0032C47.9856 31.6455 47.2539 34.2878 45.202 36.166C45.1861 36.1819 45.1702 36.1819 45.1543 36.1819C45.1225 36.1819 45.0907 36.1501 45.1066 36.1183C45.1543 35.2587 44.7885 34.7016 43.9772 34.4629C43.1978 34.3196 42.4184 34.2718 41.6231 34.3196C41.5595 34.3196 41.5436 34.3514 41.5595 34.4151C42.7525 37.3757 42.8161 39.8111 40.3665 42.1032C39.7462 42.6921 39.1417 43.1378 38.5373 43.488C35.2765 45.3344 31.6022 46.9739 29.3912 50.1573C29.3435 50.221 29.3276 50.221 29.3276 50.1414C29.3435 47.34 31.0614 44.9683 32.4293 42.6921C33.5109 40.8935 33.5427 39.0789 32.5247 37.2643L32.1589 36.6754C32.1589 36.6754 32.143 36.6594 32.143 36.6754C32.1271 36.6754 32.1271 36.6913 32.1271 36.7072C33.0178 39.1266 32.2543 41.371 30.791 43.3447C29.9956 44.4112 28.914 45.7641 27.5143 47.4195C25.9396 49.4729 24.6511 51.4466 23.9672 53.9775C23.9672 53.9934 23.9513 53.9934 23.9513 53.9934C23.9354 54.0093 23.9195 53.9934 23.9036 53.9775C21.4858 49.25 24.3171 45.0797 26.3372 40.9571C26.7508 40.1135 27.053 39.2858 27.228 38.5058C28.1823 34.3833 24.5716 31.7728 21.5017 29.9901C18.7022 28.462 16.7139 26.2177 15.5528 23.2571C15.5528 23.2411 15.5369 23.2252 15.521 23.2252C15.5051 23.2252 15.4732 23.2411 15.4732 23.273C15.5369 25.1194 16.1095 26.7748 17.207 28.2392C19.3544 31.1043 22.1061 33.5237 21.7562 37.4871C21.5017 40.3841 19.9588 42.0713 20.9927 45.0479C20.9927 45.0638 21.0245 45.0797 21.0404 45.0797C21.0722 45.0797 21.0881 45.0638 21.0881 45.032C21.1836 43.488 21.6131 42.0236 22.3606 40.6229C22.6151 40.0658 22.8696 39.5086 23.1241 38.9356C24.0785 36.739 23.4105 34.4788 22.3766 32.4732C22.3447 32.4095 22.3606 32.3936 22.4084 32.4414C23.3468 33.1099 24.1262 33.9058 24.7625 34.8608C26.21 37.0415 25.5101 39.5086 24.3648 41.7211C23.9513 42.5329 23.4105 43.7426 22.7742 45.3821C22.1539 47.0853 21.8994 48.8521 22.0266 50.6667C22.0266 50.7304 22.0107 50.7304 21.963 50.6826C19.5611 48.0085 18.5272 44.9365 18.559 41.3551C18.5909 37.8532 19.0362 34.7812 17.1752 31.6137C15.7595 29.2101 14.2325 26.5201 13.9781 23.5436C13.7554 20.9172 14.6938 18.1635 16.03 15.9033C16.0936 15.8078 16.0777 15.7918 15.9822 15.8714C15.2028 16.54 14.5348 17.3199 13.994 18.1794C11.7353 22.0951 11.942 26.8385 14.5825 30.5154C14.6302 30.5949 14.6302 30.5949 14.5507 30.5472C10.3673 27.1568 10.6695 22.0155 13.0714 17.6701C13.2464 17.4154 13.2623 17.3199 13.135 17.3677C11.6557 18.7684 10.6695 20.4556 10.1605 22.4134C10.1446 22.493 10.1287 22.493 10.1128 22.4134C9.73108 19.3732 10.6059 16.4126 12.9441 14.3593C14.6938 12.8153 16.6344 12.0831 18.7499 11.2077C18.8295 11.1758 18.8136 11.1599 18.734 11.1599C16.6026 11.1758 14.5507 11.5737 12.5624 12.3537C10.3673 13.3724 8.64945 14.9164 7.40876 17.0175C5.54773 20.3919 4.03664 23.8142 0.0918846 25.199C-0.0194588 25.2626 -0.0353622 25.2467 0.0759811 25.1671ZM46.9835 27.3796C48.0652 26.7748 48.2719 24.61 48.3674 23.5595C48.3674 23.5436 48.3674 23.5277 48.3515 23.5277C48.3356 23.5117 48.3038 23.5117 48.2878 23.5277C48.0652 23.7664 47.9538 23.9893 47.9061 24.3394C47.7629 25.4059 47.4607 26.3769 46.9358 27.316C46.8881 27.4115 46.904 27.4274 46.9835 27.3796ZM40.0643 31.0406C40.5574 32.6005 42.0208 32.5528 43.5637 32.6164C44.5817 32.5528 45.2816 32.9666 45.6792 33.8421C45.6951 33.8739 45.711 33.8739 45.7428 33.8421C46.6018 32.314 46.8722 30.8974 45.9814 29.3534C45.9496 29.3056 45.9178 29.2738 45.8701 29.2738C44.9316 29.051 43.9932 29.7195 43.3251 30.1333C42.6411 30.5472 41.9094 30.8019 41.1141 30.8974L40.1597 30.9451C40.0643 30.9451 40.0484 30.977 40.0643 31.0406ZM38.5055 41.18C39.6826 39.5882 39.8257 37.8373 38.9032 35.9432L38.5055 35.2428C38.4101 35.0677 38.3782 35.0836 38.4419 35.2746C39.4917 39.0152 37.7102 41.5461 35.1811 43.9814C36.6127 43.1855 37.7102 42.2464 38.5055 41.18ZM25.4783 15.0278C23.7286 12.5925 22.647 10.2367 25.192 7.88093C25.2397 7.83318 25.2874 7.83318 25.3192 7.88093C25.8759 8.37437 26.4645 8.80414 27.1007 9.15432L27.8165 9.47266C27.9119 9.52042 27.9278 9.48858 27.8483 9.42491C27.3393 8.85189 27.0212 8.18336 26.9098 7.43525C26.9098 7.41933 26.9098 7.40341 26.9257 7.3875C26.9576 7.37158 26.9894 7.37158 27.0053 7.3875C27.6256 8.13561 28.405 8.62904 29.3594 8.8678C29.4866 8.89964 29.5026 8.8678 29.4071 8.78822C27.9437 7.45116 27.7211 4.92031 25.192 5.07948C22.6788 5.23866 20.8177 8.86781 20.2133 10.9052C19.9747 11.6693 20.9132 12.5925 21.454 13.0063C22.6311 13.9613 23.9672 14.6458 25.4306 15.0756C25.5101 15.1074 25.526 15.0915 25.4783 15.0278ZM19.9588 24.1007C20.1656 25.2626 20.5951 26.345 21.2472 27.3637C20.945 25.1831 21.3426 23.1934 22.4402 21.3629C23.3627 19.8348 24.4126 18.3704 24.8738 16.6195C24.8738 16.6036 24.8738 16.6036 24.8579 16.5877C24.842 16.5718 24.8261 16.5718 24.8102 16.5877C23.8876 17.7815 22.8537 18.8639 21.7085 19.8667C20.4678 21.156 19.6089 22.1269 19.9588 24.1007ZM18.9249 20.6625C18.9567 20.7103 18.9726 20.7103 18.9567 20.6466C18.8295 19.1822 20.3087 18.3864 21.4699 17.7815C22.1698 17.3677 23.0923 16.731 23.4105 15.9988C23.4423 15.9192 23.4264 15.9192 23.3627 15.951C22.8537 16.3012 22.2652 16.5718 21.6131 16.7628C19.752 17.3995 17.4138 18.0043 18.9249 20.6625Z" fill="url(#paint4_linear_52_357)"/>
<path d="M143.863 29.4664V11.0042H149.507L164.514 23.5585V11.0042H170V29.4664H164.356L149.349 16.9121V29.4664H143.863Z" fill="white"/>
<path d="M125.187 29.8093C123.306 29.8093 121.591 29.6774 120.044 29.4137C118.514 29.1324 117.161 28.7279 115.982 28.2005C114.804 27.6554 113.811 27.0048 113.002 26.2487C112.193 25.4751 111.578 24.5871 111.156 23.5849C110.752 22.5827 110.549 21.4749 110.549 20.2617C110.549 19.0485 110.752 17.9408 111.156 16.9385C111.56 15.9187 112.167 15.022 112.976 14.2483C113.802 13.4747 114.804 12.8241 115.982 12.2966C117.161 11.7515 118.514 11.3471 120.044 11.0834C121.591 10.802 123.306 10.6614 125.187 10.6614C127.069 10.6614 128.774 10.802 130.304 11.0834C131.851 11.3471 133.214 11.7515 134.392 12.2966C135.57 12.8241 136.563 13.4747 137.372 14.2483C138.199 15.022 138.814 15.9187 139.218 16.9385C139.623 17.9408 139.825 19.0485 139.825 20.2617C139.825 21.4749 139.614 22.5827 139.192 23.5849C138.788 24.5871 138.181 25.4751 137.372 26.2487C136.563 27.0048 135.57 27.6554 134.392 28.2005C133.214 28.7279 131.851 29.1324 130.304 29.4137C128.774 29.6774 127.069 29.8093 125.187 29.8093ZM125.187 25.3256C126.383 25.3256 127.447 25.2641 128.379 25.141C129.31 25.0003 130.119 24.7981 130.805 24.5344C131.508 24.2531 132.08 23.919 132.519 23.5322C132.976 23.1277 133.311 22.653 133.522 22.1079C133.75 21.5629 133.864 20.9475 133.864 20.2617C133.864 19.576 133.75 18.9606 133.522 18.4155C133.311 17.8704 132.976 17.3957 132.519 16.9913C132.08 16.5693 131.508 16.2264 130.805 15.9627C130.119 15.6813 129.31 15.4791 128.379 15.356C127.447 15.2154 126.383 15.1451 125.187 15.1451C124.009 15.1451 122.945 15.2154 121.996 15.356C121.064 15.4791 120.246 15.6813 119.543 15.9627C118.857 16.2264 118.286 16.5693 117.829 16.9913C117.389 17.3957 117.055 17.8704 116.826 18.4155C116.615 18.9606 116.51 19.576 116.51 20.2617C116.51 20.9475 116.615 21.5629 116.826 22.1079C117.055 22.653 117.389 23.1277 117.829 23.5322C118.286 23.919 118.857 24.2531 119.543 24.5344C120.246 24.7981 121.064 25.0003 121.996 25.141C122.945 25.2641 124.009 25.3256 125.187 25.3256Z" fill="white"/>
<path d="M84.4429 29.4664V11.0042H107.705V15.145H90.1134V17.9935H105.859V22.1079H90.1134V25.3256H107.89V29.4664H84.4429Z" fill="white"/>
<path d="M60 29.4664V11.0042H65.8288V24.9828H80.5194V29.4664H60Z" fill="white"/>
<path d="M166.464 42.5286V39.7686L164.139 35.5286H165.415L167.091 38.7186L168.767 35.5286H170L167.643 39.7786V42.5286H166.464Z" fill="#ABABAB"/>
<path d="M158.96 42.5286V36.4586H156.862V35.5286H162.258V36.4586H160.139V42.5286H158.96Z" fill="#ABABAB"/>
<path d="M152.97 42.5286V35.5286H154.159V42.5286H152.97Z" fill="#ABABAB"/>
<path d="M145.944 42.5286V35.5286H147.133V41.5986H150.215V42.5286H145.944Z" fill="#ABABAB"/>
<path d="M142.109 42.5286L141.536 40.7886H138.843L138.27 42.5286H137.124L139.589 35.5286H140.855L143.309 42.5286H142.109ZM141.233 39.8786L140.195 36.7486L139.157 39.8786H141.233Z" fill="#ABABAB"/>
<path d="M134.886 40.1586C134.886 40.5586 134.825 40.9119 134.703 41.2186C134.587 41.5253 134.414 41.7853 134.183 41.9986C133.96 42.2053 133.682 42.3619 133.351 42.4686C133.027 42.5686 132.652 42.6186 132.226 42.6186C131.808 42.6186 131.433 42.5686 131.102 42.4686C130.777 42.3619 130.5 42.2053 130.269 41.9986C130.039 41.7853 129.865 41.5253 129.75 41.2186C129.635 40.9119 129.577 40.5586 129.577 40.1586V35.5286H130.756V40.2286C130.756 40.5486 130.813 40.8186 130.929 41.0386C131.044 41.2519 131.21 41.4153 131.426 41.5286C131.65 41.6353 131.916 41.6886 132.226 41.6886C132.464 41.6886 132.673 41.6586 132.853 41.5986C133.034 41.5386 133.185 41.4486 133.308 41.3286C133.437 41.2019 133.535 41.0486 133.6 40.8686C133.672 40.6819 133.708 40.4686 133.708 40.2286V35.5286H134.886V40.1586Z" fill="#ABABAB"/>
<path d="M123.586 42.6186C123.204 42.6186 122.855 42.5686 122.537 42.4686C122.22 42.3686 121.939 42.2219 121.694 42.0286C121.449 41.8286 121.24 41.5853 121.067 41.2986C120.901 41.0053 120.771 40.6719 120.678 40.2986C120.591 39.9186 120.548 39.4986 120.548 39.0386C120.548 38.5786 120.591 38.1586 120.678 37.7786C120.771 37.3986 120.901 37.0619 121.067 36.7686C121.24 36.4753 121.449 36.2319 121.694 36.0386C121.939 35.8386 122.22 35.6886 122.537 35.5886C122.855 35.4886 123.204 35.4386 123.586 35.4386C123.968 35.4386 124.318 35.4886 124.635 35.5886C124.952 35.6886 125.233 35.8386 125.479 36.0386C125.731 36.2319 125.94 36.4753 126.106 36.7686C126.279 37.0619 126.409 37.3986 126.495 37.7786C126.589 38.1519 126.636 38.5686 126.636 39.0286C126.636 39.4886 126.589 39.9086 126.495 40.2886C126.409 40.6619 126.279 40.9953 126.106 41.2886C125.954 41.5419 125.774 41.7619 125.565 41.9486L126.582 43.3386H125.37L124.732 42.4386C124.704 42.4519 124.671 42.4619 124.635 42.4686C124.318 42.5686 123.968 42.6186 123.586 42.6186ZM123.273 40.3586H124.419L124.927 41.0486C124.992 40.9553 125.053 40.8453 125.111 40.7186C125.212 40.5053 125.288 40.2586 125.338 39.9786C125.388 39.6919 125.414 39.3753 125.414 39.0286C125.414 38.6819 125.388 38.3686 125.338 38.0886C125.288 37.8086 125.212 37.5619 125.111 37.3486C125.017 37.1286 124.895 36.9486 124.743 36.8086C124.599 36.6619 124.43 36.5519 124.235 36.4786C124.04 36.4053 123.824 36.3686 123.586 36.3686C123.348 36.3686 123.132 36.4053 122.938 36.4786C122.75 36.5519 122.581 36.6619 122.429 36.8086C122.285 36.9553 122.163 37.1353 122.062 37.3486C121.968 37.5619 121.896 37.8086 121.845 38.0886C121.795 38.3686 121.77 38.6853 121.77 39.0386C121.77 39.3853 121.795 39.6986 121.845 39.9786C121.896 40.2586 121.968 40.5053 122.062 40.7186C122.163 40.9319 122.285 41.1119 122.429 41.2586C122.581 41.4053 122.75 41.5153 122.938 41.5886C123.132 41.6619 123.348 41.6986 123.586 41.6986C123.81 41.6986 124.012 41.6653 124.192 41.5986L123.273 40.3586Z" fill="#ABABAB"/>
<path d="M107.013 42.5286V35.5286H108.365L110.517 40.0086L112.658 35.5286H113.966V42.5286H112.874V37.2386L110.971 41.1686H110.019L108.105 37.2486V42.5286H107.013Z" fill="#ABABAB"/>
<path d="M103.636 40.1586C103.636 40.5586 103.575 40.9119 103.452 41.2186C103.337 41.5253 103.164 41.7853 102.933 41.9986C102.71 42.2053 102.432 42.3619 102.1 42.4686C101.776 42.5686 101.401 42.6186 100.976 42.6186C100.558 42.6186 100.183 42.5686 99.8513 42.4686C99.5269 42.3619 99.2494 42.2053 99.0187 41.9986C98.788 41.7853 98.615 41.5253 98.4997 41.2186C98.3843 40.9119 98.3267 40.5586 98.3267 40.1586V35.5286H99.5053V40.2286C99.5053 40.5486 99.5629 40.8186 99.6783 41.0386C99.7936 41.2519 99.9594 41.4153 100.176 41.5286C100.399 41.6353 100.666 41.6886 100.976 41.6886C101.214 41.6886 101.423 41.6586 101.603 41.5986C101.783 41.5386 101.935 41.4486 102.057 41.3286C102.187 41.2019 102.284 41.0486 102.349 40.8686C102.421 40.6819 102.457 40.4686 102.457 40.2286V35.5286H103.636V40.1586Z" fill="#ABABAB"/>
<path d="M93.7637 42.5286V35.5286H94.9531V42.5286H93.7637Z" fill="#ABABAB"/>
<path d="M83.3271 42.5286V35.5286H84.6788L86.8306 40.0086L88.9715 35.5286H90.2799V42.5286H89.1878V37.2386L87.2847 41.1686H86.3332L84.4193 37.2486V42.5286H83.3271Z" fill="#ABABAB"/>
<path d="M76.0054 42.5286V35.5286H80.3198V36.4586H77.1732V38.4786H79.9413V39.4086H77.1732V41.5986H80.3846V42.5286H76.0054Z" fill="#ABABAB"/>
<path d="M67.8604 42.5286V35.5286H70.5636C70.9385 35.5286 71.2701 35.5753 71.5584 35.6686C71.8467 35.7619 72.0882 35.9019 72.2829 36.0886C72.4775 36.2686 72.6253 36.4919 72.7262 36.7586C72.8343 37.0253 72.8884 37.3286 72.8884 37.6686C72.8884 38.1086 72.7947 38.4853 72.6073 38.7986C72.4198 39.1053 72.1531 39.3386 71.8071 39.4986C71.6341 39.5853 71.4395 39.6486 71.2232 39.6886L73.1912 42.5286H71.8395L69.9905 39.8086H69.0498V42.5286H67.8604ZM69.0498 36.4386V38.8986H70.423C70.6177 38.8986 70.7943 38.8719 70.9529 38.8186C71.1115 38.7653 71.2448 38.6886 71.353 38.5886C71.4683 38.4819 71.5548 38.3519 71.6125 38.1986C71.6773 38.0453 71.7098 37.8686 71.7098 37.6686C71.7098 37.4686 71.6809 37.2919 71.6233 37.1386C71.5728 36.9853 71.4899 36.8586 71.3746 36.7586C71.2664 36.6519 71.1295 36.5719 70.9637 36.5186C70.8051 36.4653 70.6177 36.4386 70.4014 36.4386H69.0498Z" fill="#ABABAB"/>
<path d="M60 42.5286V35.5286H62.5086C62.8979 35.5286 63.2475 35.5819 63.5575 35.6886C63.8675 35.7953 64.1306 35.9519 64.3468 36.1586C64.5631 36.3586 64.7253 36.6053 64.8334 36.8986C64.9488 37.1919 65.0064 37.5253 65.0064 37.8986C65.0064 38.3853 64.9019 38.8053 64.6928 39.1586C64.491 39.5053 64.1954 39.7719 63.8062 39.9586C63.4241 40.1386 62.9628 40.2286 62.4221 40.2286H61.1894V42.5286H60ZM61.1894 36.4486V39.3186H62.3248C62.6492 39.3186 62.9195 39.2653 63.1358 39.1586C63.3592 39.0519 63.5286 38.8919 63.644 38.6786C63.7593 38.4653 63.817 38.2053 63.817 37.8986C63.817 37.5786 63.7593 37.3119 63.644 37.0986C63.5286 36.8786 63.3592 36.7153 63.1358 36.6086C62.9195 36.5019 62.6492 36.4486 62.3248 36.4486H61.1894Z" fill="#ABABAB"/>
<defs>
<linearGradient id="paint0_linear_52_357" x1="50" y1="27" x2="0" y2="27" gradientUnits="userSpaceOnUse">
<stop stop-color="#A77118"/>
<stop offset="1" stop-color="#EABA3F"/>
</linearGradient>
<linearGradient id="paint1_linear_52_357" x1="50" y1="27" x2="0" y2="27" gradientUnits="userSpaceOnUse">
<stop stop-color="#A77118"/>
<stop offset="1" stop-color="#EABA3F"/>
</linearGradient>
<linearGradient id="paint2_linear_52_357" x1="50" y1="27" x2="0" y2="27" gradientUnits="userSpaceOnUse">
<stop stop-color="#A77118"/>
<stop offset="1" stop-color="#EABA3F"/>
</linearGradient>
<linearGradient id="paint3_linear_52_357" x1="50" y1="27" x2="0" y2="27" gradientUnits="userSpaceOnUse">
<stop stop-color="#A77118"/>
<stop offset="1" stop-color="#EABA3F"/>
</linearGradient>
<linearGradient id="paint4_linear_52_357" x1="50" y1="27" x2="0" y2="27" gradientUnits="userSpaceOnUse">
<stop stop-color="#A77118"/>
<stop offset="1" stop-color="#EABA3F"/>
</linearGradient>
</defs>
</svg>
