<svg width="23" height="24" viewBox="0 0 23 24" fill="none" xmlns="http://www.w3.org/2000/svg">
<path d="M6.59387 1.97344L3.12589 2.35877C2.1962 2.46207 1.47922 3.19943 1.57685 4.12973C1.8209 6.4554 2.97028 11.0411 7.89964 15.9705C12.8289 20.8998 17.4153 22.0499 19.7414 22.2943C20.6719 22.3921 21.4095 21.6751 21.5128 20.7452L21.8981 17.2776C21.9861 16.485 21.5949 15.7158 20.9024 15.3202L18.4183 13.9011C17.6352 13.4538 16.6497 13.5858 16.012 14.2235L15.3747 14.8608C14.9019 15.3336 14.2204 15.5337 13.6161 15.2474C12.9 14.9082 11.8651 14.2791 10.7288 13.1427C9.59238 12.0064 8.9633 10.9715 8.6241 10.2554C8.33783 9.65107 8.5379 8.96964 9.01075 8.4968L9.64803 7.85951C10.2857 7.22184 10.4178 6.23628 9.97042 5.45323L8.55134 2.96914C8.15573 2.27664 7.38652 1.88537 6.59387 1.97344Z" stroke="url(#paint0_linear_118_6317)" stroke-width="2" stroke-linecap="round" stroke-linejoin="round"/>
<defs>
<linearGradient id="paint0_linear_118_6317" x1="21.336" y1="22.3358" x2="1.53568" y2="2.53546" gradientUnits="userSpaceOnUse">
<stop stop-color="#A77118"/>
<stop offset="1" stop-color="#EABA3F"/>
</linearGradient>
</defs>
</svg>
