<svg width="20" height="20" viewBox="0 0 20 20" fill="none" xmlns="http://www.w3.org/2000/svg">
<path fill-rule="evenodd" clip-rule="evenodd" d="M7.75671 1.72238C7.21276 0.7702 6.15509 0.2322 5.06519 0.3533L2.50674 0.637574C1.25255 0.776928 0.136305 1.81758 0.316769 3.24683C0.594965 5.45009 1.72424 9.40572 5.92346 13.6049C10.1226 17.8041 14.0787 18.9339 16.2823 19.2125C17.7117 19.3932 18.7527 18.2769 18.8921 17.0225L19.1763 14.4644C19.2974 13.3745 18.7594 12.3168 17.8072 11.7729L16.0307 10.758C14.954 10.1429 13.5989 10.3245 12.7221 11.2013L12.4384 11.485C12.1295 11.7939 11.7868 11.8353 11.5524 11.7175C11.015 11.4476 10.2527 10.9645 9.40891 10.1207C8.56512 9.27689 8.08197 8.51455 7.81206 7.97723C7.69426 7.74274 7.73568 7.40012 8.0446 7.0912L8.32828 6.80752C9.20509 5.93071 9.38665 4.57557 8.77157 3.49888L7.75671 1.72238ZM5.23084 1.84413C5.72625 1.78908 6.20701 2.03363 6.45426 2.46644L7.46912 4.24293C7.7487 4.73234 7.66617 5.34831 7.26762 5.74686L6.98394 6.03054C6.34717 6.66732 5.98912 7.68994 6.47167 8.65055C6.80966 9.3234 7.38519 10.2183 8.34825 11.1813C9.31131 12.1444 10.2062 12.7199 10.879 13.0579C11.8396 13.5405 12.8623 13.1824 13.499 12.5456L13.7827 12.262C14.1813 11.8634 14.7972 11.7809 15.2867 12.0605L17.0631 13.0753C17.496 13.3226 17.7405 13.8033 17.6855 14.2987L17.4012 16.8568C17.334 17.4621 16.8974 17.7783 16.4704 17.7243C14.5635 17.4833 10.9251 16.4852 6.98412 12.5443C3.04313 8.6033 2.04568 4.9654 1.80495 3.05892C1.75106 2.63207 2.06719 2.19564 2.67238 2.1284L5.23084 1.84413Z" fill="white"/>
</svg>
