<svg xmlns="http://www.w3.org/2000/svg" xmlns:xlink="http://www.w3.org/1999/xlink" viewBox="0,0,256,256" width="24px" height="24px"><g fill="#ffffff" fill-rule="nonzero" stroke="none" stroke-width="1" stroke-linecap="butt" stroke-linejoin="miter" stroke-miterlimit="10" stroke-dasharray="" stroke-dashoffset="0" font-family="none" font-weight="none" font-size="none" text-anchor="none" style="mix-blend-mode: normal"><g transform="scale(10.66667,10.66667)"><path d="M20.92383,2.0293c-0.39241,-0.04344 -0.80266,0.01554 -1.19531,0.20313l-17.44141,8.33203c-0.9193,0.43945 -1.35871,1.39501 -1.27148,2.26172c0.08723,0.86671 0.70877,1.71541 1.69727,1.96289l2.81055,0.70313c1.06398,0.2663 2.19123,0.07067 3.10352,-0.53711c0.00393,-0.00257 0.00784,-0.00517 0.01172,-0.00781l1.88281,-1.30469l-0.41601,0.43164l0.01172,-0.00977c-1.11553,1.11553 -0.90833,3.01866 0.42383,3.86523c0.01654,0.01042 0.03348,0.0202 0.05078,0.0293l7.04297,3.74609c1.57873,0.83957 3.55975,-0.21185 3.74805,-1.99023l1.60547,-15.19141c0.00001,-0.0026 0.00001,-0.00521 0,-0.00781c0.12562,-1.29992 -0.88722,-2.35601 -2.06445,-2.48633zM20.80469,3.5c0.41183,0.02969 0.73713,0.38498 0.69141,0.86914v0.00195l-1.60547,15.18555c-0.0817,0.77161 -0.86551,1.18865 -1.55078,0.82422l-6.99414,-3.71875l-0.00195,-0.00195c-0.54746,-0.35001 -0.62576,-1.07541 -0.16602,-1.53516c0.00329,-0.00387 0.00655,-0.00778 0.00977,-0.01172l5.60742,-5.8418c0.26464,-0.27838 0.27622,-0.71169 0.02684,-1.00381c-0.24938,-0.29212 -0.67914,-0.34865 -0.99559,-0.13096l-8.0293,5.57031c-0.56171,0.37422 -1.25419,0.49377 -1.9082,0.33008l-2.81055,-0.70312c-0.38151,-0.09552 -0.53954,-0.35241 -0.57031,-0.6582c-0.03077,-0.30579 0.07108,-0.58826 0.42578,-0.75781l17.44141,-8.33203c0.14619,-0.06984 0.29241,-0.09583 0.42969,-0.08594z"></path></g></g></svg>