<svg width="20" height="20" viewBox="0 0 20 20" fill="none" xmlns="http://www.w3.org/2000/svg">
<path fill-rule="evenodd" clip-rule="evenodd" d="M0.302694 19.697C0.488619 19.8829 0.758333 19.9579 1.01354 19.8946L5.4315 18.799C6.79833 19.5131 8.35287 19.9166 9.99969 19.9166C15.4555 19.9166 19.9164 15.4558 19.9164 9.99998C19.9164 4.54414 15.4555 0.083313 9.99969 0.083313C4.54389 0.083313 0.0830236 4.54414 0.0830236 9.99998C0.0830236 11.6468 0.486561 13.2013 1.20064 14.5682L0.105072 18.9861C0.0417852 19.2413 0.116768 19.511 0.302694 19.697ZM9.99969 18.4166C8.5092 18.4166 7.11172 18.0281 5.90063 17.3473C5.73407 17.2537 5.53806 17.2272 5.35261 17.2732L1.86055 18.1391L2.72651 14.6471C2.7725 14.4616 2.74597 14.2656 2.65234 14.099C1.97155 12.888 1.58302 11.4905 1.58302 9.99998C1.58302 5.37257 5.37231 1.58331 9.99969 1.58331C14.6271 1.58331 18.4164 5.37256 18.4164 9.99998C18.4164 14.6274 14.6271 18.4166 9.99969 18.4166Z" fill="white"/>
<path d="M8.92459 11.075C8.54625 10.6955 7.02766 9.01024 7.58025 8.45766C7.73213 8.30578 8.33941 7.89096 8.57633 7.65403C9.38319 6.84718 8.45747 5.8482 7.86385 5.25457C7.81535 5.20608 6.90154 4.22258 5.68834 5.43581C3.51934 7.60481 6.61102 11.494 7.5537 12.4459C8.50563 13.3886 12.3948 16.4803 14.5638 14.3113C15.7771 13.0981 14.7935 12.1843 14.745 12.1358C14.1515 11.5422 13.1524 10.6165 12.3456 11.4233C12.1087 11.6602 11.6939 12.2675 11.542 12.4194C10.9894 12.972 9.30415 11.4534 8.92459 11.075Z" fill="white"/>
</svg>
